<svg xmlns="http://www.w3.org/2000/svg" width="922.83" height="555.903" viewBox="0 0 922.83 555.903" xmlns:xlink="http://www.w3.org/1999/xlink" role="img" artist="Katerina Limpitsouni" source="https://undraw.co/">
  <g id="Group_229" data-name="Group 229" transform="translate(-354 -221.54)">
    <path id="Path_3581-911" data-name="Path 3581" d="M514.322,683.5H187.955a1.012,1.012,0,0,1,0-2H514.322a1.012,1.012,0,0,1,0,2Z" transform="translate(369.348 75.5)" fill="#e6e6e6"/>
    <rect id="Rectangle_798" data-name="Rectangle 798" width="6" height="1" transform="translate(1263.83 250.54)" fill="#e6e6e6"/>
    <path id="Path_3582-912" data-name="Path 3582" d="M987.78,246.5H975.659v-1H987.78Zm-24.242,0H951.417v-1h12.121Zm-24.242,0H927.174v-1H939.3Zm-24.242,0H902.932v-1h12.121Zm-24.242,0H878.69v-1h12.121Zm-24.242,0H854.447v-1h12.121Zm-24.242,0H830.2v-1h12.121Zm-24.242,0H805.962v-1h12.121Zm-24.242,0H781.72v-1h12.121Zm-24.242,0H757.477v-1H769.6Zm-24.242,0H733.235v-1h12.121Zm-24.242,0H708.993v-1h12.121Zm-24.242,0H684.75v-1h12.121Zm-24.242,0H660.508v-1h12.121Zm-24.242,0H636.265v-1h12.121Zm-24.242,0H612.023v-1h12.121Z" transform="translate(263.928 5.04)" fill="#e6e6e6"/>
    <rect id="Rectangle_799" data-name="Rectangle 799" width="6" height="1" transform="translate(899.803 275.378)" fill="#e6e6e6"/>
    <rect id="Rectangle_800" data-name="Rectangle 800" width="6" height="1" transform="translate(1066.83 343.54)" fill="#e6e6e6"/>
    <path id="Path_3583-913" data-name="Path 3583" d="M790.96,339.5H779.019v-1H790.96Zm-23.882,0H755.137v-1h11.941Zm-23.882,0H731.254v-1H743.2Zm-23.882,0H707.372v-1h11.941Zm-23.882,0H683.489v-1h11.941Zm-23.883,0H659.607v-1h11.941Zm-23.882,0H635.725v-1h11.941Zm-23.882,0H611.842v-1h11.941Z" transform="translate(263.928 5.04)" fill="#e6e6e6"/>
    <rect id="Rectangle_801" data-name="Rectangle 801" width="6" height="1" transform="translate(899.803 368.378)" fill="#e6e6e6"/>
    <rect id="Rectangle_802" data-name="Rectangle 802" width="6" height="1" transform="translate(949.83 387.54)" fill="#e6e6e6"/>
    <path id="Path_3584-914" data-name="Path 3584" d="M673.616,383.5H661.33v-1h12.286Zm-24.572,0H636.759v-1h12.286Zm-24.571,0H612.187v-1h12.286Z" transform="translate(263.928 5.04)" fill="#e6e6e6"/>
    <rect id="Rectangle_803" data-name="Rectangle 803" width="6" height="1" transform="translate(899.803 412.378)" fill="#e6e6e6"/>
    <path id="Path_3585-915" data-name="Path 3585" d="M1006.071,256.51V427.77a32.538,32.538,0,0,1-32.5,32.5h-348a32.4,32.4,0,0,1-24.17-10.8v-1.53a31.407,31.407,0,0,0,23.97,11.33l60.19-60.19a8.5,8.5,0,0,1,12.02,0l31.99,31.98,74.99-74.98a8.5,8.5,0,0,1,12.02,0l43.99,43.98,143.51-143.5.99-.03.46-.01Z" transform="translate(263.928 5.04)" fill="#0d6efd"/>
    <path id="Path_3586-916" data-name="Path 3586" d="M973.9,460.5h-348A32.537,32.537,0,0,1,593.4,428V249a32.537,32.537,0,0,1,32.5-32.5h348a32.537,32.537,0,0,1,32.5,32.5V428A32.537,32.537,0,0,1,973.9,460.5Zm-348-243A31.536,31.536,0,0,0,594.4,249V428a31.536,31.536,0,0,0,31.5,31.5h348a31.536,31.536,0,0,0,31.5-31.5V249a31.536,31.536,0,0,0-31.5-31.5Z" transform="translate(263.928 5.04)" fill="#3f3d56"/>
    <path id="Path_3587-917" data-name="Path 3587" d="M626.255,460.354l-.707-.707L685.891,399.3a8.509,8.509,0,0,1,12.021,0l31.99,31.99,74.99-74.99a8.509,8.509,0,0,1,12.02,0l43.99,43.99,144.646-144.646.707.707L860.9,401.707l-44.7-44.7a7.5,7.5,0,0,0-10.606,0l-75.7,75.7-32.7-32.7a7.509,7.509,0,0,0-10.606,0Z" transform="translate(263.928 5.04)" fill="#3f3d56"/>
    <circle id="Ellipse_565" data-name="Ellipse 565" cx="7" cy="7" r="7" transform="translate(948.83 381.04)" fill="#3f3d56"/>
    <circle id="Ellipse_566" data-name="Ellipse 566" cx="7" cy="7" r="7" transform="translate(1065.83 337.04)" fill="#3f3d56"/>
    <circle id="Ellipse_567" data-name="Ellipse 567" cx="7" cy="7" r="7" transform="translate(1262.83 244.04)" fill="#3f3d56"/>
    <path id="Path_3594-918" data-name="Path 3594" d="M615.311,317s.7,18.26-3.512,22.474,21.07,18.963,21.07,18.963l14.749-23.177S642,325.428,643.4,317Z" transform="translate(92.885 37.725)" fill="#ffb9b9"/>
    <path id="Path_3595-919" data-name="Path 3595" d="M305.5,683.5v17.558l21.772,1.4-1.4-18.963Z" transform="translate(357.396 42.402)" fill="#ffb9b9"/>
    <path id="Path_3596-920" data-name="Path 3596" d="M466.272,683.5v17.558l-21.772,1.4,1.4-18.963Z" transform="translate(316.02 42.402)" fill="#ffb9b9"/>
    <path id="Path_3597-921" data-name="Path 3597" d="M562.15,566.867s-11.237,40.735-4.214,73.042c0,0,0,14.046,2.809,16.856s3.512,2.809,1.4,4.214-6.321,4.916-4.214,7.023,2.809,4.916,1.4,5.619-2.809,2.107-1.4,4.916-7.023,77.958-7.023,77.958-8.428,9.13,0,9.833,22.474,4.214,23.879-1.4,12.642-84.981,12.642-84.981,1.4-2.107,4.214-5.619,1.4-4.916,1.4-5.619S607.8,601.28,607.8,601.28s21.772,75.851,23.879,77.255,2.809,1.4,2.809,3.512-1.4,3.512,0,5.619a36.46,36.46,0,0,1,2.107,3.512s3.512,78.66,10.535,78.66,28.093-1.4,25.986-7.726S668.2,757.2,668.2,757.2s4.916-64.614-7.023-83.576V658.169c0-1.4.7-2.107,0-3.512s2.107-84.981-11.237-89.9S562.15,566.867,562.15,566.867Z" transform="translate(111.984 -35.508)" fill="#d6d6e3"/>
    <path id="Path_3598-922" data-name="Path 3598" d="M553.553,861.119s-3.512-5.619-8.428-5.619-8.428,5.619-8.428,5.619l-12.642,17.558s-18.26,11.237-11.237,17.558,25.986,2.809,25.986,2.809,15.451-11.237,17.558-11.94a44.582,44.582,0,0,0,8.428-4.916c.7-.7-1.4-25.986-3.512-24.23S557.767,865.333,553.553,861.119Z" transform="translate(122.688 -122.574)" fill="#090814"/>
    <path id="Path_3599-923" data-name="Path 3599" d="M698.679,861.119s3.512-5.619,8.428-5.619,8.428,5.619,8.428,5.619l12.642,17.558s18.26,11.237,11.237,17.558-25.986,2.809-25.986,2.809-15.451-11.237-17.558-11.94a44.582,44.582,0,0,1-8.428-4.916c-.7-.7,1.4-25.986,3.512-24.23S694.465,865.333,698.679,861.119Z" transform="translate(70.269 -122.574)" fill="#090814"/>
    <ellipse id="Ellipse_578" data-name="Ellipse 578" cx="25.284" cy="25.284" rx="25.284" ry="25.284" transform="translate(693.111 313.342)" fill="#ffb9b9"/>
    <path id="Path_3600-924" data-name="Path 3600" d="M606.246,346.524s-4.725.26-6.928-6.893L562,366.891l15.451,41.437s2.107,22.474,0,28.8-3.512,11.237-3.512,14.046-14.749,49.865-9.13,51.972,91.3,10.535,93.409-3.512S651.2,392.877,651.2,392.877l14.749-35.818L630.087,333.6S626.614,347.928,606.246,346.524Z" transform="translate(107.568 32.782)" fill="#0d6efd"/>
    <path id="Path_3601-925" data-name="Path 3601" d="M552.7,444.5l-2.809,21.772s-11.237,23.177-8.428,54.079l-.7,20.367s-7.023,35.116,7.023,36.521,4.916-38.628,4.916-38.628l7.726-18.963,7.908-42.183,4.031-29.454Z" transform="translate(114.415 -0.229)" fill="#ffb9b9"/>
    <path id="Path_3602-926" data-name="Path 3602" d="M570.074,379.5l-10.184,1.053s-6.672,49.514-4.565,49.514,25.986,5.619,26.688,4.214S570.074,379.5,570.074,379.5Z" transform="translate(109.678 19.119)" fill="#0d6efd"/>
    <path id="Path_3603-927" data-name="Path 3603" d="M602.979,252.364l-4.558-1.657s9.53-9.53,22.789-8.7l-3.729-3.729s9.116-3.315,17.4,5.386c4.356,4.574,9.4,9.951,12.539,16.007H652.3l-2.037,4.074,7.13,4.074-7.318-.732a20.56,20.56,0,0,1-.692,10.552l-1.657,4.558S641.1,268.937,641.1,267.28v4.143s-4.558-3.729-4.558-6.215l-2.486,2.9-1.243-4.558-15.331,4.558,2.486-3.729-9.53,1.243,3.729-4.558s-10.773,5.386-11.187,9.944-5.8,10.359-5.8,10.359l-2.486-4.143S590.964,258.579,602.979,252.364Z" transform="translate(98 61.344)" fill="#090814"/>
    <ellipse id="Ellipse_579" data-name="Ellipse 579" cx="46.88" cy="66.721" rx="46.88" ry="66.721" transform="translate(720.487 540.489)" fill="#3f3d56"/>
    <ellipse id="Ellipse_580" data-name="Ellipse 580" cx="46.88" cy="66.721" rx="46.88" ry="66.721" transform="translate(720.487 540.489)" opacity="0.1"/>
    <ellipse id="Ellipse_581" data-name="Ellipse 581" cx="46.88" cy="66.721" rx="46.88" ry="66.721" transform="translate(726.808 540.489)" fill="#090814"/>
    <path id="Path_3604-928" data-name="Path 3604" d="M705.957,692.6v-6.717A15.6,15.6,0,0,1,697,682.96l1.4-4.456a14.319,14.319,0,0,0,8.431,2.86c4.157,0,6.967-2.727,6.967-6.518,0-3.658-2.283-5.919-6.616-7.915-5.972-2.66-9.66-5.72-9.66-11.506a10.457,10.457,0,0,1,8.841-10.708V638H710v6.451a14.244,14.244,0,0,1,7.611,2.328l-1.464,4.39a12.938,12.938,0,0,0-7.377-2.262c-4.508,0-6.206,3.059-6.206,5.72,0,3.458,2.166,5.188,7.26,7.582,6.03,2.793,9.075,6.252,9.075,12.171a11.13,11.13,0,0,1-9.25,11.306V692.6Z" transform="translate(67.382 -57.829)" fill="#0d6efd"/>
    <path id="Path_3605-929" data-name="Path 3605" d="M707.539,433.5v28.8s.7,35.116-11.237,56.888L689.98,533.23s-12.642,40.735-20.367,28.093,8.428-33.711,8.428-33.711l9.142-53.46-5.63-35.734Z" transform="translate(76.158 3.045)" fill="#ffb9b9"/>
    <path id="Path_3606-930" data-name="Path 3606" d="M688.119,364.5l13.7,1.756s16.5,50.216,12.291,52.323-31.6,3.512-31.6,3.512Z" transform="translate(71.698 23.585)" fill="#0d6efd"/>
    <g id="Group_228" data-name="Group 228" transform="translate(3 27)">
      <path id="Path_3607-931" data-name="Path 3607" d="M814.516,356.5H612.288A18.789,18.789,0,0,1,593.4,337.852v-102.7A18.789,18.789,0,0,1,612.288,216.5H814.516A18.789,18.789,0,0,1,833.4,235.148v102.7A18.789,18.789,0,0,1,814.516,356.5ZM612.288,217.074a18.211,18.211,0,0,0-18.305,18.074v102.7a18.211,18.211,0,0,0,18.305,18.074H814.516a18.211,18.211,0,0,0,18.305-18.074v-102.7a18.211,18.211,0,0,0-18.305-18.074Z" transform="translate(-242.402 30.5)" fill="#3f3d56"/>
      <rect id="Rectangle_805" data-name="Rectangle 805" width="120" height="20" rx="8" transform="translate(395 267)" fill="#e6e6e6"/>
      <path id="Path_3629-932" data-name="Path 3629" d="M504.464,180.89a1.6,1.6,0,0,1-3.2,0V168.756l-3.666,3.669a1.6,1.6,0,0,1-2.265-2.265l6.4-6.4a1.6,1.6,0,0,1,2.262,0l0,0,6.4,6.4a1.6,1.6,0,0,1-2.265,2.265l-3.666-3.669Z" transform="translate(-127.865 104.708)" fill="#0d6efd"/>
      <rect id="Rectangle_806" data-name="Rectangle 806" width="120" height="20" rx="8" transform="translate(395 267)" fill="#e6e6e6"/>
      <path id="Path_3630-933" data-name="Path 3630" d="M591,338.209l8.7-8.874,3.968,4.047,20.7-4.535L639,320.209v18Z" transform="translate(-64 -51)" fill="#0d6efd"/>
      <path id="Path_3631-934" data-name="Path 3631" d="M504.464,180.89a1.6,1.6,0,0,1-3.2,0V168.756l-3.666,3.669a1.6,1.6,0,0,1-2.265-2.265l6.4-6.4a1.6,1.6,0,0,1,2.262,0l0,0,6.4,6.4a1.6,1.6,0,0,1-2.265,2.265l-3.666-3.669Z" transform="translate(-127.865 104.708)" fill="#0d6efd"/>
      <rect id="Rectangle_805-2" data-name="Rectangle 805" width="120" height="20" rx="8" transform="translate(395 309)" fill="#e6e6e6"/>
      <path id="Path_3629-2-935" data-name="Path 3629" d="M504.464,180.89a1.6,1.6,0,0,1-3.2,0V168.756l-3.666,3.669a1.6,1.6,0,0,1-2.265-2.265l6.4-6.4a1.6,1.6,0,0,1,2.262,0l0,0,6.4,6.4a1.6,1.6,0,0,1-2.265,2.265l-3.666-3.669Z" transform="translate(-127.865 146.708)" fill="#0d6efd"/>
      <rect id="Rectangle_806-2" data-name="Rectangle 806" width="120" height="20" rx="8" transform="translate(395 309)" fill="#e6e6e6"/>
      <path id="Path_3631-2-936" data-name="Path 3631" d="M504.464,180.89a1.6,1.6,0,0,1-3.2,0V168.756l-3.666,3.669a1.6,1.6,0,0,1-2.265-2.265l6.4-6.4a1.6,1.6,0,0,1,2.262,0l0,0,6.4,6.4a1.6,1.6,0,0,1-2.265,2.265l-3.666-3.669Z" transform="translate(-127.865 146.708)" fill="#0d6efd"/>
      <rect id="Rectangle_805-3" data-name="Rectangle 805" width="120" height="20" rx="8" transform="translate(395 350)" fill="#e6e6e6"/>
      <path id="Path_3629-3-937" data-name="Path 3629" d="M504.464,180.89a1.6,1.6,0,0,1-3.2,0V168.756l-3.666,3.669a1.6,1.6,0,0,1-2.265-2.265l6.4-6.4a1.6,1.6,0,0,1,2.262,0l0,0,6.4,6.4a1.6,1.6,0,0,1-2.265,2.265l-3.666-3.669Z" transform="translate(-127.865 187.708)" fill="#0d6efd"/>
      <rect id="Rectangle_806-3" data-name="Rectangle 806" width="120" height="20" rx="8" transform="translate(395 350)" fill="#e6e6e6"/>
      <path id="Path_3631-3-938" data-name="Path 3631" d="M504.464,180.89a1.6,1.6,0,0,1-3.2,0V168.756l-3.666,3.669a1.6,1.6,0,0,1-2.265-2.265l6.4-6.4a1.6,1.6,0,0,1,2.262,0l0,0,6.4,6.4a1.6,1.6,0,0,1-2.265,2.265l-3.666-3.669Z" transform="translate(-127.865 187.708)" fill="#0d6efd"/>
      <path id="Path_3632-939" data-name="Path 3632" d="M591,338.209l8.7-8.874,3.968,4.047,20.7-4.535L639,320.209v18Z" transform="translate(-64 -9.209)" fill="#0d6efd"/>
      <path id="Path_3633-940" data-name="Path 3633" d="M591,338.209l8.7-8.874,3.968,4.047,20.7-4.535L639,320.209v18Z" transform="translate(-64 31.791)" fill="#0d6efd"/>
    </g>
  </g>
</svg>